<?xml version="1.0" standalone="no"?>
<!DOCTYPE svg PUBLIC "-//W3C//DTD SVG 20010904//EN"
 "http://www.w3.org/TR/2001/REC-SVG-20010904/DTD/svg10.dtd">
<svg version="1.0" xmlns="http://www.w3.org/2000/svg"
 width="114.000000pt" height="114.000000pt" viewBox="0 0 114.000000 114.000000"
 preserveAspectRatio="xMidYMid meet">
<metadata>
Created by potrace 1.11, written by Peter Selinger 2001-2013
</metadata>
<g transform="translate(0.000000,114.000000) scale(0.100000,-0.100000)"
fill="#000000" stroke="none">
<path d="M50 576 c0 -442 3 -565 13 -568 6 -2 73 -4 147 -4 l135 1 0 195 c1
173 -7 250 -25 250 -3 0 -5 -87 -5 -192 0 -106 -1 -201 -3 -210 -4 -16 -17
-17 -116 -15 l-111 2 -2 500 -2 500 44 -94 c25 -51 45 -94 45 -96 0 -2 25 -55
55 -120 30 -64 55 -118 55 -119 0 -2 20 -46 44 -97 24 -52 67 -146 96 -209
130 -286 140 -305 154 -289 15 15 206 425 206 441 0 5 4 7 8 4 4 -3 8 -102 7
-221 0 -137 3 -219 10 -223 5 -4 72 -7 148 -7 l137 -1 0 568 0 568 -148 0
-148 0 -19 -42 c-10 -24 -61 -131 -113 -238 l-94 -195 -116 235 c-65 129 -123
237 -130 239 -8 2 -12 -3 -10 -12 5 -24 251 -527 257 -527 4 0 60 114 125 254
l120 253 123 1 123 0 0 -540 0 -539 -117 3 -117 3 0 283 c1 155 -1 282 -2 282
-3 0 -114 -229 -114 -235 0 -1 -27 -61 -61 -131 -34 -71 -65 -140 -70 -153 -5
-13 -11 -22 -13 -20 -2 2 -26 54 -54 114 -27 61 -70 153 -94 205 -24 52 -111
242 -193 422 -83 180 -156 329 -162 332 -10 4 -13 -111 -13 -558z"/>
</g>
</svg>
